<svg width="160" height="123" viewBox="0 0 160 123" fill="none" xmlns="http://www.w3.org/2000/svg">
<path d="M42.327 161.81C24.1134 160.57 8.85114 148.495 3.89722 131.692C-2.2372 110.799 -1.18318 87.9295 7.43875 67.8119C18.9909 40.8141 43.8658 19.3593 73.1256 11.1417C97.5157 4.28082 127.724 8.2927 142.143 28.3133C151.545 41.3762 152.346 58.2377 152.409 74.0914C152.473 89.2474 152.156 104.655 147.582 119.191C143.007 133.727 133.669 147.468 119.608 154.503C106.96 160.841 92.098 161.112 77.8265 161.267C65.3258 161.403 53.4996 162.605 42.3059 161.829L42.327 161.81Z" fill="#FFCD00"/>
<path d="M22.1529 37.5775C28.5403 28.3521 35.0964 23.5262 45.0253 17.7894C49.1149 15.4249 54.0688 12.4596 53.8369 7.90509C53.6472 3.97074 49.4311 1.27677 45.3836 0.443387C36.2979 -1.45596 26.622 2.94354 20.8249 9.88196C15.0277 16.8204 12.6456 25.8326 12.1397 34.6703C11.9921 37.1124 12.3083 40.097 14.6272 41.1242C17.3677 42.3646 20.2557 39.8451 22.1319 37.5969" fill="#FFCD00"/>
<path d="M145.748 133.766C146.043 133.301 146.275 132.777 146.507 132.254C147.772 129.211 149.058 128.378 150.322 124.889C150.512 124.346 150.723 123.804 151.081 123.339C152.346 121.73 155.108 121.749 156.899 122.874C160.357 125.005 160.61 130.006 158.122 133.087C155.466 136.363 150.639 137.623 146.254 137.467C145.811 137.467 145.39 137.177 145.263 136.789C144.884 135.607 145.221 134.657 145.769 133.766H145.748Z" fill="#FFCD00"/>
<path d="M155.129 64.4202C153.99 71.3392 149.753 77.8706 143.366 81.6887C141.447 82.8322 139.192 83.9563 138.623 85.9719C138.243 87.2511 138.665 88.6077 139.044 89.8869C145.094 110.237 143.872 132.331 135.608 152.003C135.06 153.321 132.91 157.255 132.91 157.255C132.91 157.255 99.7713 163.496 89.737 163.612L90.1797 160.628L90.6856 157.275C91.4445 152.081 92.351 146.131 93.3628 139.735C99.2443 101.864 108.246 48.489 108.815 46.7834C110.565 41.6281 114.401 56.4352 114.57 61.8425C116.678 59.2261 120.051 57.5205 123.55 57.2492C122.201 51.493 122.475 47.1904 124.309 41.7443C124.436 41.3567 125.047 41.2792 125.279 41.6474C128.862 47.3455 129.284 52.3264 131.413 59.1485C131.772 60.292 131.645 61.8037 132.868 62.2107C133.606 62.4433 134.407 62.172 135.144 61.8619C139.403 60.137 143.682 58.3927 147.961 56.6678C150.133 55.7956 152.304 54.9041 154.475 54.0319C155.571 57.3849 155.782 60.951 155.213 64.4202H155.129Z" fill="white"/>
<path d="M94.5012 146.111C94.5012 146.111 88.177 103.027 68.1927 88.4141C67.9397 88.2203 68.6143 88.4141 68.6565 88.7048C69.1413 95.2168 71.7975 145.162 90.264 160.725L94.5012 146.111Z" fill="white"/>
<path d="M155.129 64.4204C151.545 62.5986 149.184 59.1294 147.877 56.6873C150.048 55.8152 152.22 54.9237 154.391 54.0515C155.487 57.4044 155.698 60.9706 155.129 64.4398V64.4204Z" fill="#1A2B60"/>
<path d="M121.294 71.8044C121.864 73.1029 121.864 74.3046 121.294 74.5177C120.725 74.7309 119.84 73.8394 119.271 72.5409C118.702 71.2423 118.702 70.0407 119.271 69.8275C119.819 69.6143 120.725 70.5059 121.294 71.8044Z" fill="#1A2B60"/>
<path d="M128.673 68.432C129.242 69.7305 129.242 70.9321 128.673 71.1453C128.125 71.3585 127.218 70.467 126.649 69.1684C126.08 67.8699 126.08 66.6683 126.649 66.4551C127.197 66.2419 128.103 67.1334 128.673 68.432Z" fill="#1A2B60"/>
<path d="M141.321 81.0299C141.321 81.0299 134.069 88.8792 127.703 81.6889" stroke="#1A2B60" stroke-width="0.25" stroke-miterlimit="10" stroke-linecap="round"/>
<path d="M12.6035 159.93C12.6035 159.93 6.84855 104.927 27.0015 65.0404L32.9884 79.5181C32.9884 79.5181 37.1623 78.1614 42.327 79.5181L48.5669 65.0404C48.5669 65.0404 74.8964 115.722 69.9846 166.016L12.5614 159.93H12.6035Z" fill="white"/>
<path d="M32.1451 87.2703C32.1451 88.8983 31.6392 90.2162 31.0279 90.2162C30.4165 90.2162 29.9106 88.8983 29.9106 87.2703C29.9106 85.6423 30.4165 84.3243 31.0279 84.3243C31.6392 84.3243 32.1451 85.6423 32.1451 87.2703Z" fill="#1A2B60"/>
<path d="M39.9449 87.2703C39.9449 88.8983 39.439 90.2162 38.8277 90.2162C38.2163 90.2162 37.7104 88.8983 37.7104 87.2703C37.7104 85.6423 38.2163 84.3243 38.8277 84.3243C39.439 84.3243 39.9449 85.6423 39.9449 87.2703Z" fill="#1A2B60"/>
<path d="M33.0727 97.9689L13.1727 85.5457" stroke="#1A2B60" stroke-width="0.13" stroke-miterlimit="10" stroke-linecap="round"/>
<path d="M33.0727 97.9686L9.1463 103.725" stroke="#1A2B60" stroke-width="0.13" stroke-miterlimit="10" stroke-linecap="round"/>
<path d="M33.0727 97.9688L14.1846 95.5656" stroke="#1A2B60" stroke-width="0.13" stroke-miterlimit="10" stroke-linecap="round"/>
<path d="M35.8975 98.2207L61.6157 87.7162" stroke="#1A2B60" stroke-width="0.13" stroke-miterlimit="10" stroke-linecap="round"/>
<path d="M35.8975 98.2207L59.9925 105.876" stroke="#1A2B60" stroke-width="0.13" stroke-miterlimit="10" stroke-linecap="round"/>
<path d="M35.8975 98.2206L57.0623 96.2825" stroke="#1A2B60" stroke-width="0.13" stroke-miterlimit="10" stroke-linecap="round"/>
<path d="M49.1782 131.343C68.1717 134.773 88.1349 123.028 88.9782 104.52C89.3787 95.7787 85.3945 87.4061 77.8898 81.9988C71.7765 77.5799 55.1018 69.5755 64.061 60.6602C67.9398 56.8034 73.7159 55.1366 77.4261 51.1054C81.1362 47.0741 82.0427 41.5893 78.3958 37.3642C76.2455 34.9028 72.4721 38.3914 74.6013 40.8528C77.5736 44.2832 72.957 48.6633 70.1533 50.5045C66.3588 52.9853 62.1005 54.9041 59.1703 58.3733C52.4667 66.3195 58.812 75.3898 66.2323 80.4677C70.1533 83.1616 74.5802 85.2935 77.8898 88.6852C80.5881 91.4567 82.2957 94.9453 83.1178 98.5696C84.8042 105.954 82.4854 113.881 76.7093 119.307C70.0479 125.548 59.866 128.3 50.5695 126.614C47.1966 126.013 45.7631 130.742 49.136 131.362L49.1782 131.343Z" fill="white"/>
</svg>
