<svg width="186" height="193" viewBox="0 0 186 193" fill="none" xmlns="http://www.w3.org/2000/svg">
<path d="M49.1423 187.864C27.9961 186.424 10.2763 172.406 4.52474 152.897C-2.59743 128.64 -1.37369 102.088 8.63651 78.7309C22.0487 47.3859 50.929 22.4765 84.9 12.9358C113.217 4.97016 148.29 9.62802 165.031 32.8723C175.946 48.0385 176.876 67.615 176.95 86.0214C177.023 103.618 176.656 121.507 171.345 138.383C166.034 155.259 155.192 171.213 138.867 179.381C124.182 186.739 106.927 187.054 90.3579 187.234C75.8443 187.392 62.114 188.787 49.1178 187.887L49.1423 187.864Z" fill="#D9D9D9"/>
<path d="M25.7197 43.6281C33.1356 32.9173 40.7473 27.3143 52.2749 20.6538C57.023 17.9086 62.7746 14.4659 62.5054 9.17795C62.2851 4.6101 57.3901 1.48235 52.691 0.51478C42.1423 -1.69039 30.9084 3.4175 24.1778 11.4731C17.4472 19.5287 14.6816 29.9921 14.0942 40.2528C13.9229 43.0881 14.29 46.5533 16.9822 47.7459C20.1639 49.186 23.517 46.2608 25.6952 43.6506" fill="#D9D9D9"/>
<path d="M169.216 155.304C169.559 154.764 169.828 154.157 170.097 153.549C171.566 150.016 173.059 149.049 174.527 144.998C174.747 144.368 174.992 143.738 175.408 143.198C176.877 141.331 180.083 141.353 182.163 142.658C186.177 145.133 186.471 150.939 183.583 154.517C180.499 158.319 174.894 159.782 169.803 159.602C169.289 159.602 168.8 159.264 168.653 158.814C168.212 157.442 168.604 156.339 169.24 155.304H169.216Z" fill="#D9D9D9"/>
<path d="M180.107 74.7929C178.786 82.826 173.866 90.4091 166.45 94.8419C164.223 96.1696 161.604 97.4747 160.944 99.8148C160.503 101.3 160.993 102.875 161.433 104.36C168.457 127.987 167.038 153.639 157.444 176.478C156.807 178.008 154.311 182.576 154.311 182.576C154.311 182.576 115.837 189.822 104.187 189.957L104.7 186.492L105.288 182.599C106.169 176.568 107.221 169.66 108.396 162.235C115.225 118.266 125.675 56.2965 126.336 54.3163C128.368 48.3309 132.822 65.5222 133.018 71.8002C135.465 68.7624 139.381 66.7823 143.444 66.4673C141.878 59.7842 142.196 54.7889 144.325 48.4659C144.472 48.0158 145.182 47.9258 145.451 48.3534C149.612 54.9689 150.101 60.7518 152.573 68.6724C152.989 70 152.842 71.7552 154.262 72.2277C155.119 72.4977 156.049 72.1827 156.905 71.8227C161.849 69.82 166.818 67.7949 171.786 65.7922C174.307 64.7796 176.828 63.7445 179.349 62.732C180.621 66.6248 180.866 70.7651 180.205 74.7929H180.107Z" fill="white"/>
<path d="M109.718 169.638C109.718 169.638 102.375 119.616 79.1731 102.65C78.8794 102.425 79.6626 102.65 79.7116 102.988C80.2745 110.548 83.3583 168.535 104.798 186.604L109.718 169.638Z" fill="white"/>
<path d="M180.107 74.7933C175.947 72.6781 173.205 68.6503 171.688 65.8151C174.209 64.8025 176.73 63.7675 179.251 62.7549C180.523 66.6477 180.768 70.788 180.107 74.8158V74.7933Z" fill="#1A2B60"/>
<path d="M149.392 79.4504C150.052 80.958 150.052 82.3531 149.392 82.6007C148.755 82.8482 147.703 81.8131 147.042 80.3055C146.381 78.7979 146.381 77.4028 147.042 77.1552C147.678 76.9077 148.731 77.9428 149.392 79.4504Z" fill="#1A2B60"/>
<path d="M140.825 83.3659C141.486 84.8736 141.486 86.2687 140.825 86.5162C140.164 86.7637 139.136 85.7286 138.476 84.221C137.815 82.7134 137.815 81.3183 138.476 81.0708C139.112 80.8232 140.164 81.8583 140.825 83.3659Z" fill="#1A2B60"/>
<path d="M164.076 94.0771C164.076 94.0771 155.657 103.19 148.266 94.8422" stroke="#1A2B60" stroke-width="0.25" stroke-miterlimit="10" stroke-linecap="round"/>
<path d="M14.6329 185.682C14.6329 185.682 7.95131 121.822 31.3492 75.5132L38.3001 92.322C38.3001 92.322 43.1461 90.7469 49.1424 92.322L56.387 75.5132C56.387 75.5132 86.956 134.355 81.2534 192.747L14.584 185.682H14.6329Z" fill="white"/>
<path d="M37.3214 101.323C37.3214 103.213 36.734 104.743 36.0242 104.743C35.3144 104.743 34.7271 103.213 34.7271 101.323C34.7271 99.4325 35.3144 97.9023 36.0242 97.9023C36.734 97.9023 37.3214 99.4325 37.3214 101.323Z" fill="#1A2B60"/>
<path d="M46.377 101.323C46.377 103.213 45.7897 104.743 45.0799 104.743C44.3701 104.743 43.7827 103.213 43.7827 101.323C43.7827 99.4325 44.3701 97.9023 45.0799 97.9023C45.7897 97.9023 46.377 99.4325 46.377 101.323Z" fill="#1A2B60"/>
<path d="M38.3982 113.744L15.2939 99.3203" stroke="#1A2B60" stroke-width="0.13" stroke-miterlimit="10" stroke-linecap="round"/>
<path d="M38.3981 113.744L10.6191 120.427" stroke="#1A2B60" stroke-width="0.13" stroke-miterlimit="10" stroke-linecap="round"/>
<path d="M38.3982 113.744L16.4688 110.954" stroke="#1A2B60" stroke-width="0.13" stroke-miterlimit="10" stroke-linecap="round"/>
<path d="M41.6777 114.036L71.537 101.84" stroke="#1A2B60" stroke-width="0.13" stroke-miterlimit="10" stroke-linecap="round"/>
<path d="M41.6777 114.036L69.6524 122.924" stroke="#1A2B60" stroke-width="0.13" stroke-miterlimit="10" stroke-linecap="round"/>
<path d="M41.6777 114.036L66.2505 111.786" stroke="#1A2B60" stroke-width="0.13" stroke-miterlimit="10" stroke-linecap="round"/>
<path d="M57.0966 152.492C79.1484 156.474 102.326 142.838 103.305 121.349C103.77 111.201 99.1444 101.48 90.4313 95.2021C83.3336 90.0717 63.9741 80.7785 74.3759 70.4277C78.8792 65.9499 85.5853 64.0147 89.8929 59.3344C94.2005 54.654 95.2529 48.286 91.0187 43.3806C88.5223 40.5229 84.1413 44.5732 86.6133 47.4309C90.0642 51.4137 84.7042 56.4991 81.4491 58.6368C77.0436 61.517 72.0997 63.7447 68.6977 67.7725C60.9147 76.9982 68.2816 87.529 76.8968 93.4245C81.4491 96.5522 86.5888 99.0274 90.4313 102.965C93.5641 106.183 95.5466 110.233 96.5011 114.441C98.4591 123.014 95.7668 132.217 89.0607 138.518C81.3267 145.764 69.5054 148.959 58.712 147.001C54.796 146.304 53.1317 151.794 57.0477 152.514L57.0966 152.492Z" fill="white"/>
</svg>
