<svg width="231" height="46" viewBox="0 0 231 46" fill="none" xmlns="http://www.w3.org/2000/svg">
<path d="M0.615785 11.8899C0.615785 8.74312 0.533486 5.7156 0.378036 2.78899C0.34146 1.88991 0.570063 1.27523 1.06385 0.926607C1.55763 0.577983 2.25258 0.403671 3.14871 0.403671L3.80709 0.431193C5.53533 0.293578 7.46474 0.220184 9.60446 0.220184C12.5397 0.220184 14.7983 0.844037 16.3894 2.10092C17.9713 3.3578 18.7669 5.14679 18.7669 7.46789C18.7669 9.99083 17.889 11.9358 16.1334 13.3028C14.3777 14.6697 11.8448 15.3486 8.5346 15.3486C7.94023 15.3486 7.48302 15.1284 7.15383 14.6789C6.82465 14.2294 6.66005 13.6881 6.66005 13.055C6.66005 12.422 6.83379 11.8257 7.18127 11.3395C7.52874 10.8532 7.99509 10.6055 8.58946 10.6055C10.0982 10.6055 11.2413 10.3395 12.0277 9.79817C12.8141 9.25688 13.2073 8.48624 13.2073 7.46789C13.2073 6.63303 12.8963 5.99083 12.2837 5.54129C11.671 5.09174 10.7932 4.87156 9.66847 4.87156C8.32428 4.87156 7.11726 4.90826 6.06569 4.99083C6.1297 6.74312 6.15713 8.61468 6.15713 10.5963C6.15713 13.7431 6.07483 17.4771 5.91938 21.8165C5.90109 22.6972 5.66334 23.2569 5.22442 23.5138C4.77636 23.7706 4.09055 23.8991 3.15785 23.8991C2.22515 23.8991 1.57592 23.7248 1.07299 23.3761C0.570065 23.0275 0.350606 22.4037 0.387182 21.5138C0.542632 18.3945 0.624925 15.1743 0.624925 11.8807L0.615785 11.8899Z" fill="black"/>
<path d="M21.373 13.2385C21.373 10.211 21.2907 6.73394 21.1352 2.79816C21.0986 1.89908 21.3181 1.2844 21.8027 0.935779C22.2874 0.587155 22.9732 0.412842 23.8693 0.412842H34.2205C34.7965 0.412842 35.2355 0.660549 35.5464 1.15596C35.8481 1.65138 36.0036 2.22936 36.0036 2.88991C36.0036 3.58716 35.8115 4.15596 35.4366 4.58715C35.0617 5.02752 34.3759 5.24771 33.3883 5.24771H26.7863L26.8777 9.72477H33.6261C34.1839 9.72477 34.6137 9.92661 34.9337 10.3394C35.2537 10.7431 35.4092 11.3028 35.4092 11.9908C35.4092 12.6789 35.1714 13.2844 34.6959 13.7248C34.2205 14.1651 33.5895 14.3853 32.794 14.3853H26.8777L26.7863 19.1009H34.5222C35.0983 19.1009 35.5372 19.3486 35.8481 19.844C36.159 20.3395 36.3053 20.9174 36.3053 21.578C36.3053 22.2752 36.1133 22.844 35.7384 23.2752C35.3635 23.7156 34.6777 23.9358 33.6901 23.9358H23.8784C22.9823 23.9358 22.2965 23.7615 21.7936 23.4128C21.2907 23.0642 21.0803 22.4404 21.1352 21.5505C21.2907 19.1651 21.373 16.3945 21.373 13.2569V13.2385Z" fill="black"/>
<path d="M43.7669 12.3119C43.7669 9.50459 43.7304 7.14679 43.6481 5.23853H38.9754C38.3993 5.23853 37.9604 4.99083 37.6495 4.49542C37.3386 4 37.1923 3.42202 37.1923 2.76147C37.1923 2.06422 37.3843 1.49541 37.7592 1.06422C38.1341 0.623854 38.82 0.403671 39.8075 0.403671H53.1854C53.7615 0.403671 54.2004 0.651377 54.5113 1.14679C54.8222 1.6422 54.9685 2.22018 54.9685 2.88073C54.9685 3.57798 54.7765 4.14679 54.4016 4.57798C54.0266 5.01835 53.3408 5.23853 52.3533 5.23853H49.1985C49.2534 7.11009 49.29 9.13762 49.29 11.3211C49.29 15.0367 49.2077 18.5413 49.0522 21.8257C49.0157 22.7064 48.7688 23.2661 48.3207 23.5229C47.8727 23.7798 47.196 23.9083 46.2816 23.9083C45.3672 23.9083 44.6905 23.7248 44.1876 23.367C43.6846 23.0092 43.456 22.3945 43.52 21.5138C43.6755 19.0642 43.7578 15.9908 43.7578 12.2936V12.3119H43.7669Z" fill="black"/>
<path d="M62.7684 11.8899C62.7684 8.74312 62.6861 5.7156 62.5307 2.78899C62.4941 1.88991 62.7227 1.27523 63.2165 0.926607C63.7103 0.577983 64.4052 0.403671 65.3014 0.403671L65.9597 0.431193C67.688 0.293578 69.6174 0.220184 71.7571 0.220184C74.6924 0.220184 76.951 0.844037 78.5421 2.10092C80.124 3.3578 80.9195 5.14679 80.9195 7.46789C80.9195 9.99083 80.0417 11.9358 78.286 13.3028C76.5304 14.6697 73.9974 15.3486 70.6872 15.3486C70.0929 15.3486 69.6357 15.1284 69.3065 14.6789C68.9773 14.2294 68.8127 13.6881 68.8127 13.055C68.8127 12.422 68.9864 11.8257 69.3339 11.3395C69.6814 10.8532 70.1478 10.6055 70.7421 10.6055C72.2509 10.6055 73.3939 10.3395 74.1803 9.79817C74.9667 9.25688 75.3599 8.48624 75.3599 7.46789C75.3599 6.63303 75.049 5.99083 74.4363 5.54129C73.8237 5.09174 72.9459 4.87156 71.8211 4.87156C70.4769 4.87156 69.2699 4.90826 68.2183 4.99083C68.2823 6.74312 68.3098 8.61468 68.3098 10.5963C68.3098 13.7431 68.2275 17.4771 68.072 21.8165C68.0537 22.6972 67.816 23.2569 67.3771 23.5138C66.929 23.7706 66.2432 23.8991 65.3105 23.8991C64.3778 23.8991 63.7286 23.7248 63.2256 23.3761C62.7227 23.0275 62.5033 22.4037 62.5398 21.5138C62.6953 18.3945 62.7776 15.1743 62.7776 11.8807H62.7684V11.8899Z" fill="black"/>
<path d="M83.5256 12.6055C83.5256 8.98165 83.4433 5.7156 83.2879 2.78899C83.2513 1.88991 83.4799 1.27523 83.9737 0.926607C84.4675 0.577983 85.1624 0.403671 86.0585 0.403671C86.9547 0.403671 87.6496 0.532112 88.0977 0.788992C88.5457 1.04587 88.7926 1.61468 88.8566 2.48624C88.9755 5.00917 89.0395 8.00918 89.0395 11.4679C89.0395 14.156 89.0121 16.6881 88.9481 19.0734H96.2085C96.7846 19.0734 97.2235 19.3211 97.5344 19.8165C97.8453 20.3119 97.9916 20.8899 97.9916 21.5505C97.9916 22.2477 97.7996 22.8165 97.4247 23.2477C97.0498 23.6881 96.364 23.9083 95.3764 23.9083H86.0403C85.1441 23.9083 84.4583 23.7339 83.9554 23.3853C83.4525 23.0367 83.2421 22.4128 83.297 21.5229C83.4525 19.1376 83.5348 16.1651 83.5348 12.6055H83.5256Z" fill="black"/>
<path d="M101.247 12.7248C102.079 9.89908 103.094 6.40367 104.283 2.22018C104.466 1.6422 104.694 1.22936 104.978 0.963303C105.261 0.706423 105.59 0.541285 105.947 0.486239C106.304 0.431193 106.807 0.394497 107.465 0.394497H109.431C110.226 0.394497 110.766 0.412845 111.049 0.440368C111.333 0.467891 111.626 0.596331 111.909 0.825689C112.192 1.05505 112.43 1.45872 112.604 2.0367C113.518 5.11927 114.414 8.21101 115.311 11.3119C116.582 15.7706 117.514 18.9633 118.109 20.8899C118.209 21.1651 118.255 21.4679 118.255 21.789C118.255 22.2844 118.081 22.6697 117.734 22.9358C117.386 23.2018 116.856 23.4587 116.143 23.6972C115.631 23.8532 115.173 23.9358 114.771 23.9358C113.756 23.9358 113.107 23.3853 112.805 22.2936L111.946 18.8349H105.051L104.008 22.4771C103.853 22.9908 103.634 23.367 103.359 23.5963C103.085 23.8257 102.737 23.9358 102.317 23.9358C101.96 23.9358 101.439 23.8257 100.744 23.6055C100.086 23.3853 99.5827 23.1101 99.217 22.7706C98.8512 22.4312 98.6683 21.9908 98.6683 21.4587C98.6683 21.156 98.7232 20.8349 98.8512 20.4771C99.6193 18.1284 100.424 15.5413 101.256 12.7156L101.247 12.7248ZM108.206 6.19266C107.255 10.1468 106.569 12.9541 106.157 14.6055H110.949L108.837 5.38532H108.389L108.206 6.19266Z" fill="black"/>
<path d="M120.221 11.2936C120.221 7.55046 120.148 4.7156 120.011 2.78899C119.974 2.0734 120.157 1.49541 120.578 1.05505C120.998 0.61468 121.62 0.394497 122.452 0.394497C124.062 0.394497 125.086 0.95413 125.543 2.06422C126.494 4.53211 127.673 7.0367 129.063 9.58716C130.462 12.1376 131.752 14.1193 132.941 15.5505C132.84 14.9174 132.776 13.5596 132.73 11.4954C132.73 10.8624 132.721 10.3486 132.703 9.97248C132.639 6.05505 132.593 3.66055 132.556 2.77982C132.502 1.88073 132.712 1.26606 133.197 0.917432C133.681 0.568809 134.376 0.394497 135.263 0.394497C136.15 0.394497 136.891 0.522937 137.348 0.779818C137.805 1.0367 138.052 1.60551 138.089 2.47707C138.189 4.31193 138.235 6.80734 138.235 9.9633C138.235 13.9174 138.162 17.8716 138.025 21.8073C138.006 22.6881 137.769 23.2477 137.33 23.5046C136.882 23.7615 136.196 23.8899 135.263 23.8899C134.632 23.8899 134.102 23.8073 133.672 23.633C133.242 23.4679 132.858 23.1743 132.502 22.7523C131.468 21.5596 130.298 19.9174 128.99 17.8257C127.683 15.7339 126.521 13.5596 125.515 11.2936C125.616 13.2202 125.662 15.3028 125.662 17.5321C125.662 19.0275 125.616 20.4495 125.515 21.7982C125.451 22.6789 125.205 23.2385 124.775 23.4954C124.336 23.7523 123.668 23.8807 122.754 23.8807C121.84 23.8807 121.163 23.6972 120.66 23.3394C120.157 22.9817 119.928 22.367 119.992 21.4862C120.148 18.8807 120.23 15.4679 120.23 11.2477V11.2936H120.221Z" fill="black"/>
<path d="M147.461 12.578C147.461 9.49541 147.379 6.22936 147.224 2.78899C147.187 1.88991 147.416 1.27523 147.909 0.926607C148.403 0.577983 149.098 0.403672 149.994 0.403672C152.353 0.266057 154.402 0.192661 156.148 0.192661C158.828 0.192661 160.922 0.752294 162.439 1.88073C163.957 3.00918 164.716 4.61468 164.716 6.69725C164.716 7.92661 164.46 8.9633 163.948 9.78899C163.436 10.6147 162.769 11.1835 161.955 11.5046V11.9266C163.125 12.2661 164.031 12.9083 164.661 13.8624C165.292 14.8165 165.612 15.9725 165.612 17.3211C165.612 19.5872 164.735 21.3211 162.97 22.5229C161.205 23.7248 158.672 24.3303 155.389 24.3303C154.795 24.3303 154.338 24.1284 154.009 23.7339C153.679 23.3394 153.515 22.8624 153.515 22.3028C153.515 21.7431 153.689 21.2202 154.036 20.7982C154.383 20.367 154.85 20.156 155.444 20.156C156.935 20.156 158.069 19.8991 158.864 19.3761C159.66 18.8624 160.053 18.0734 160.053 17.0183C160.053 15.2294 158.873 14.3119 156.514 14.2752H155.563C154.987 14.2752 154.127 14.2936 152.975 14.3303C152.957 15.9174 152.884 18.422 152.765 21.8165C152.728 22.6972 152.481 23.2569 152.033 23.5138C151.585 23.7706 150.909 23.8991 149.994 23.8991C149.08 23.8991 148.403 23.7156 147.9 23.3578C147.397 23 147.169 22.3853 147.233 21.5046C147.388 18.7431 147.471 15.7523 147.471 12.5505V12.578H147.461ZM152.966 10.2202L156.624 10.1284C157.419 10.1468 158.032 9.91743 158.48 9.43119C158.928 8.94495 159.148 8.22936 159.148 7.29358C159.148 6.3578 158.882 5.56881 158.361 5.05505C157.84 4.54128 157.118 4.27523 156.203 4.27523C155.152 4.27523 154.036 4.30275 152.838 4.36697C152.92 6.10092 152.957 8.04587 152.957 10.211L152.966 10.2202Z" fill="black"/>
<path d="M173.22 12.6697C173.22 17.0642 174.711 19.2661 177.683 19.2661C180.655 19.2661 182.236 16.9174 182.236 12.2202C182.236 7.52294 180.719 5.05504 177.683 5.05504C176.75 5.05504 175.945 5.27523 175.26 5.7156C174.574 6.15596 174.052 6.77064 173.696 7.56881C173.513 7.94495 173.083 8.13761 172.388 8.13761C171.894 8.13761 171.373 8.02752 170.825 7.80734C170.276 7.58715 169.819 7.27523 169.444 6.87156C169.069 6.46789 168.877 6.00917 168.877 5.51376C168.877 5.19266 168.95 4.88991 169.087 4.58716C169.764 3.11927 170.843 1.98165 172.343 1.18349C173.842 0.38532 175.625 -0.00917435 177.71 -0.00917435C180.984 -0.00917435 183.48 1.01835 185.208 3.08257C186.937 5.13762 187.796 8.19266 187.796 12.2294C187.796 16.2661 186.927 19.2477 185.19 21.2844C183.453 23.3211 180.965 24.3394 177.71 24.3394C174.455 24.3394 171.977 23.3578 170.258 21.4037C168.539 19.4404 167.688 16.5229 167.688 12.6514V10.4128C167.725 9.81651 167.999 9.3578 168.493 9.02752C168.987 8.69725 169.663 8.53211 170.514 8.53211C171.501 8.53211 172.242 8.70642 172.727 9.05505C173.211 9.40367 173.412 9.89908 173.339 10.5321C173.257 11.2477 173.22 11.9633 173.22 12.6789V12.6697Z" fill="black"/>
<path d="M195.88 12.6697C195.88 17.0642 197.37 19.2661 200.342 19.2661C203.314 19.2661 204.896 16.9174 204.896 12.2202C204.896 7.52294 203.378 5.05504 200.342 5.05504C199.409 5.05504 198.604 5.27523 197.919 5.7156C197.233 6.15596 196.712 6.77064 196.355 7.56881C196.172 7.94495 195.742 8.13761 195.047 8.13761C194.554 8.13761 194.032 8.02752 193.484 7.80734C192.935 7.58715 192.478 7.27523 192.103 6.87156C191.728 6.46789 191.536 6.00917 191.536 5.51376C191.536 5.19266 191.609 4.88991 191.746 4.58716C192.423 3.11927 193.502 1.98165 195.002 1.18349C196.501 0.38532 198.284 -0.00917435 200.369 -0.00917435C203.643 -0.00917435 206.139 1.01835 207.868 3.08257C209.596 5.13762 210.455 8.19266 210.455 12.2294C210.455 16.2661 209.587 19.2477 207.849 21.2844C206.112 23.3211 203.625 24.3394 200.369 24.3394C197.114 24.3394 194.636 23.3578 192.917 21.4037C191.198 19.4404 190.347 16.5229 190.347 12.6514V10.4128C190.384 9.81651 190.658 9.3578 191.152 9.02752C191.646 8.69725 192.322 8.53211 193.173 8.53211C194.16 8.53211 194.901 8.70642 195.386 9.05505C195.87 9.40367 196.072 9.89908 195.998 10.5321C195.916 11.2477 195.88 11.9633 195.88 12.6789V12.6697Z" fill="black"/>
<path d="M226.302 0.403672C226.896 0.403672 227.564 0.669726 228.295 1.21101C228.808 1.58716 229.201 1.92661 229.457 2.22936C229.713 2.53211 229.841 2.85321 229.841 3.21101C229.841 3.60551 229.676 4.04587 229.338 4.52294L228.268 6.0734C226.384 8.79817 224.93 10.8257 223.897 12.156L227.372 16.5413C228.323 17.7706 229.182 18.8716 229.96 19.8257C230.335 20.2844 230.527 20.7248 230.527 21.1376C230.527 21.4771 230.399 21.7982 230.143 22.0917C229.887 22.3945 229.521 22.7156 229.045 23.0734C228.295 23.6514 227.619 23.9358 227.024 23.9358C226.394 23.9358 225.845 23.5688 225.388 22.8349L220.806 15.3761C220.706 15.2018 220.569 15.0642 220.386 14.9725C220.203 14.8807 220.029 14.8349 219.846 14.8349C219.609 14.8349 219.407 14.9083 219.234 15.055C219.069 15.2018 218.978 15.4128 218.978 15.6697C218.978 16.6606 218.914 18.3761 218.795 20.7982L218.767 21.8073C218.731 22.6881 218.484 23.2477 218.036 23.5046C217.588 23.7615 216.911 23.8899 215.997 23.8899C215.082 23.8899 214.406 23.7064 213.903 23.3486C213.4 22.9908 213.171 22.3761 213.235 21.4954C213.391 19.1101 213.473 16.1376 213.473 12.578C213.473 9.01835 213.391 5.68807 213.235 2.76147C213.199 1.86239 213.427 1.24771 213.921 0.899084C214.415 0.55046 215.11 0.376148 216.006 0.376148C216.902 0.376148 217.597 0.504589 218.045 0.76147C218.493 1.01835 218.74 1.58716 218.804 2.45872C218.923 4.44954 218.987 6.66973 218.987 9.11009C218.987 9.38532 219.06 9.60551 219.197 9.7523C219.334 9.89909 219.508 9.97248 219.7 9.97248C220.038 9.97248 220.294 9.80734 220.477 9.46789L224.674 1.50459C225.049 0.752295 225.598 0.366974 226.311 0.366974V0.403672H226.302Z" fill="black"/>
<path d="M8.0591 31.6789H6.66919V36.5413C7.30928 36.4954 7.8945 36.4404 8.434 36.3853L8.47973 37.4404C7.355 37.6422 6.12969 37.7615 4.79464 37.8257C3.4596 37.8899 2.01483 37.9083 0.469467 37.9083L0.314018 36.7248H1.9691V31.6789H0.597484V30.4954H8.04995V31.6789H8.0591ZM10.0525 41.6881C10.5646 42.2569 11.2504 42.7248 12.0917 43.1009C12.9329 43.4771 13.8382 43.7339 14.78 43.8624L14.2222 44.9541C13.4176 44.8257 12.6403 44.6239 11.8996 44.3211C11.1498 44.0275 10.5006 43.6514 9.90621 43.2018C9.31184 42.7523 8.87292 42.2569 8.56202 41.6881C8.25112 42.2477 7.80306 42.7523 7.21783 43.2018C6.63261 43.6514 5.97423 44.0183 5.23356 44.3211C4.48374 44.6239 3.71564 44.8257 2.90181 44.9541L2.38973 43.8624C3.33158 43.7339 4.2277 43.4771 5.05982 43.1009C5.89193 42.7248 6.56861 42.2477 7.08068 41.6881C7.59275 41.1193 7.84878 40.5138 7.84878 39.8532V39.3578H9.25698V39.8532C9.25698 40.5138 9.51301 41.1193 10.0251 41.6881H10.0525ZM5.36158 36.633V31.6881H3.295V36.7064C3.74306 36.7064 4.43802 36.6697 5.36158 36.633ZM10.9395 38.5872H9.62274V34.7248H7.50131V33.5596H9.62274V29.4771H10.9395V38.5872ZM13.8839 40.055H12.5489V29.1284H13.8839V40.055Z" fill="black"/>
<path d="M35.1806 37.3761H20.742V36.2477H35.1806V37.3761ZM33.809 30.7339H31.3675V33.8165H33.7541V34.9083H22.1411V33.8165H24.5277V30.7339H22.0862V29.6239H33.7998V30.7339H33.809ZM33.3335 42.2477H23.9242V43.7706H33.8181V44.844H22.5343V41.2294H31.971V39.8532H22.5068V38.7982H33.3426V42.2569L33.3335 42.2477ZM29.9776 33.8073V30.7248H25.9267V33.8073H29.9776Z" fill="black"/>
<path d="M43.2183 35.0459H38.6005V37.4587C39.7161 37.4587 40.6945 37.4128 41.5358 37.3486C42.3862 37.2844 43.264 37.156 44.1601 36.9725L44.3156 38.1009C43.3463 38.2844 42.3953 38.4128 41.49 38.4862C40.5756 38.5505 39.5058 38.5872 38.2805 38.5872H37.2472V33.9358H41.8832V31.6422H37.2106V30.4954H43.2183V35.0367V35.0459ZM50.4696 44.6789H39.5881V39.8807H40.978V43.4954H50.4604V44.6789H50.4696ZM49.9849 40.9908H48.6499V35.0917H46.4187V40.5321H45.1203V29.4587H46.4187V33.9083H48.6499V29.156H49.9849V40.9908Z" fill="black"/>
<path d="M71.3182 38.0642H64.7802V39.945H69.5442V45.0275H68.136V41.0917H58.4981V39.945H63.4177V38.0642H56.8979V36.9174H71.3365V38.0642H71.3182ZM60.199 31.3486H68.0446V29.5046H69.4345V35.4404H58.809V29.5046H60.199V31.3486ZM68.0446 34.3119V32.4128H60.199V34.3119H68.0446Z" fill="black"/>
</svg>
