<svg width="186" height="193" viewBox="0 0 186 193" fill="none" xmlns="http://www.w3.org/2000/svg">
<path d="M49.1423 187.864C27.9961 186.424 10.2763 172.406 4.52474 152.897C-2.59743 128.64 -1.37369 102.088 8.63651 78.7309C22.0487 47.3859 50.929 22.4765 84.9 12.9358C113.217 4.97016 148.29 9.62802 165.031 32.8723C175.946 48.0385 176.876 67.615 176.95 86.0214C177.023 103.618 176.656 121.507 171.345 138.383C166.034 155.259 155.192 171.213 138.867 179.381C124.182 186.739 106.927 187.054 90.3579 187.234C75.8443 187.392 62.114 188.787 49.1178 187.887L49.1423 187.864Z" fill="#FFCD00"/>
<path d="M25.72 43.6281C33.1358 32.9173 40.7475 27.3143 52.2751 20.6538C57.0233 17.9086 62.7748 14.4659 62.5056 9.17795C62.2854 4.6101 57.3904 1.48235 52.6912 0.51478C42.1426 -1.69039 30.9086 3.4175 24.1781 11.4731C17.4475 19.5287 14.6818 29.9921 14.0944 40.2528C13.9231 43.0881 14.2902 46.5533 16.9825 47.7459C20.1642 49.186 23.5172 46.2608 25.6955 43.6506" fill="#FFCD00"/>
<path d="M169.216 155.304C169.558 154.764 169.828 154.157 170.097 153.549C171.565 150.016 173.058 149.049 174.527 144.998C174.747 144.368 174.992 143.738 175.408 143.198C176.876 141.331 180.083 141.353 182.163 142.658C186.177 145.133 186.47 150.939 183.582 154.517C180.499 158.319 174.894 159.782 169.803 159.602C169.289 159.602 168.8 159.265 168.653 158.814C168.212 157.442 168.604 156.339 169.24 155.304H169.216Z" fill="#FFCD00"/>
<path d="M180.107 74.7929C178.785 82.826 173.866 90.4091 166.45 94.842C164.223 96.1696 161.604 97.4747 160.943 99.8149C160.503 101.3 160.992 102.875 161.433 104.36C168.457 127.987 167.037 153.639 157.443 176.478C156.807 178.008 154.311 182.576 154.311 182.576C154.311 182.576 115.836 189.822 104.186 189.957L104.7 186.492L105.288 182.599C106.169 176.568 107.221 169.66 108.396 162.235C115.224 118.266 125.675 56.2965 126.336 54.3164C128.367 48.3309 132.822 65.5222 133.017 71.8002C135.465 68.7625 139.381 66.7823 143.444 66.4673C141.877 59.7843 142.196 54.7889 144.325 48.4659C144.472 48.0159 145.181 47.9259 145.451 48.3534C149.611 54.9689 150.101 60.7518 152.573 68.6725C152.989 70.0001 152.842 71.7552 154.262 72.2277C155.118 72.4978 156.048 72.1827 156.905 71.8227C161.849 69.82 166.817 67.7949 171.786 65.7922C174.307 64.7797 176.827 63.7446 179.348 62.732C180.621 66.6248 180.866 70.7651 180.205 74.7929H180.107Z" fill="white"/>
<path d="M109.717 169.638C109.717 169.638 102.375 119.617 79.1729 102.65C78.8792 102.425 79.6624 102.65 79.7113 102.988C80.2743 110.548 83.3581 168.535 104.798 186.604L109.717 169.638Z" fill="white"/>
<path d="M180.107 74.7932C175.946 72.678 173.205 68.6502 171.688 65.815C174.209 64.8024 176.73 63.7673 179.25 62.7547C180.523 66.6475 180.768 70.7879 180.107 74.8157V74.7932Z" fill="#1A2B60"/>
<path d="M149.391 79.4507C150.052 80.9583 150.052 82.3534 149.391 82.6009C148.755 82.8484 147.702 81.8133 147.042 80.3057C146.381 78.7981 146.381 77.403 147.042 77.1555C147.678 76.908 148.73 77.943 149.391 79.4507Z" fill="#1A2B60"/>
<path d="M140.825 83.3661C141.486 84.8737 141.486 86.2688 140.825 86.5163C140.164 86.7638 139.136 85.7287 138.475 84.2211C137.815 82.7135 137.815 81.3184 138.475 81.0709C139.112 80.8234 140.164 81.8585 140.825 83.3661Z" fill="#1A2B60"/>
<path d="M164.076 94.0771C164.076 94.0771 155.657 103.19 148.265 94.8422" stroke="#1A2B60" stroke-width="0.25" stroke-miterlimit="10" stroke-linecap="round"/>
<path d="M14.6328 185.682C14.6328 185.682 7.95119 121.822 31.3491 75.513L38.3 92.3218C38.3 92.3218 43.146 90.7467 49.1423 92.3218L56.3868 75.513C56.3868 75.513 86.9559 134.355 81.2533 192.747L14.5839 185.682H14.6328Z" fill="white"/>
<path d="M37.3209 101.322C37.3209 103.212 36.7335 104.743 36.0237 104.743C35.314 104.743 34.7266 103.212 34.7266 101.322C34.7266 99.4321 35.314 97.902 36.0237 97.902C36.7335 97.902 37.3209 99.4321 37.3209 101.322Z" fill="#1A2B60"/>
<path d="M46.3766 101.322C46.3766 103.212 45.7892 104.743 45.0794 104.743C44.3696 104.743 43.7822 103.212 43.7822 101.322C43.7822 99.4321 44.3696 97.902 45.0794 97.902C45.7892 97.902 46.3766 99.4321 46.3766 101.322Z" fill="#1A2B60"/>
<path d="M38.3978 113.744L15.2936 99.3199" stroke="#1A2B60" stroke-width="0.13" stroke-miterlimit="10" stroke-linecap="round"/>
<path d="M38.3978 113.743L10.6189 120.426" stroke="#1A2B60" stroke-width="0.13" stroke-miterlimit="10" stroke-linecap="round"/>
<path d="M38.3977 113.743L16.4683 110.953" stroke="#1A2B60" stroke-width="0.13" stroke-miterlimit="10" stroke-linecap="round"/>
<path d="M41.6775 114.036L71.5368 101.84" stroke="#1A2B60" stroke-width="0.13" stroke-miterlimit="10" stroke-linecap="round"/>
<path d="M41.6775 114.036L69.6522 122.924" stroke="#1A2B60" stroke-width="0.13" stroke-miterlimit="10" stroke-linecap="round"/>
<path d="M41.6775 114.036L66.2502 111.786" stroke="#1A2B60" stroke-width="0.13" stroke-miterlimit="10" stroke-linecap="round"/>
<path d="M57.0966 152.491C79.1484 156.474 102.326 142.838 103.305 121.349C103.77 111.201 99.1444 101.48 90.4313 95.2019C83.3336 90.0716 63.9741 80.7783 74.3759 70.4275C78.8792 65.9497 85.5853 64.0145 89.8929 59.3342C94.2005 54.6538 95.2529 48.2858 91.0187 43.3804C88.5223 40.5227 84.1413 44.573 86.6133 47.4308C90.0642 51.4136 84.7042 56.499 81.4491 58.6366C77.0436 61.5168 72.0997 63.7445 68.6977 67.7723C60.9147 76.998 68.2816 87.5289 76.8968 93.4243C81.4491 96.5521 86.5888 99.0272 90.4313 102.965C93.5641 106.183 95.5466 110.233 96.5011 114.441C98.4591 123.014 95.7668 132.217 89.0607 138.518C81.3267 145.763 69.5054 148.959 58.712 147.001C54.796 146.303 53.1317 151.794 57.0477 152.514L57.0966 152.491Z" fill="white"/>
</svg>
